<svg xmlns="http://www.w3.org/2000/svg" viewBox="0 0 438.085 304.733"><g stroke-miterlimit="10" data-paper-data="{&quot;isPaintingLayer&quot;:true}" style="mix-blend-mode:normal"><path fill="#90400f" d="m302.387 229.02-7.393-14.968 43.2-22.439 7.394 14.969z"/><path fill="#90400f" d="m338.952 170.75 28.874 5.593-4.286 22.13-28.874-5.593zM337.273 141.613l27.76-9.714 7.445 21.276-27.76 9.714zM326.035 115.674l20.033-21.533 16.503 15.353-20.032 21.533zM92.043 209.055l7.165-15.079 44.383 19.997-7.165 15.078z"/><path fill="#90400f" d="m103.614 193.554-26.001 2.736-8.114-20.622 26-2.736zM91.322 163.367l-24.178-9.945 2.658-22.001 24.179 9.945zM94.171 128.337l-18.207-18.762 11.21-19.116 18.208 18.762z"/><path fill="#d85c09" d="M88.414 217.153c6.945-12.468 26.899-2.481 39.826 12.644 12.928 15.125 26.948 77.024 14.785 70.963-7.624-3.8-27.008-10.69-39.935-25.815s-21.621-45.325-14.676-57.792M12.465 237.5c-4.826-7.307 6.715-36.687 23.006-48.754 16.292-12.067 33.41-15.924 38.236-8.616 4.825 7.307.243 23.765-16.049 35.831s-40.368 28.848-45.193 21.54M5.329 151.542c-.735-8.058 20.36-19.856 37.54-21.136 17.179-1.28 29.014-.009 29.75 8.049.734 8.057-10.476 19.12-27.655 20.401s-38.9.743-39.635-7.314M337.402 273.938c-13.422 15.8-34.494 23.729-42.717 27.934-13.118 6.71-1.29-55.857 12.133-71.658s34.94-26.851 43.386-14.777.62 42.7-12.802 58.5M425.448 240.19c-5.926 6.538-29.744-11.895-45.784-25.05s-19.141-29.384-13.216-35.923c5.926-6.539 23.732-1.175 39.772 11.981s25.153 42.452 19.228 48.991M123.155 22.554c0-10.91 8.637-19.756 19.292-19.756 10.654 0 19.292 8.845 19.292 19.756 0 10.912-8.638 19.757-19.292 19.757s-19.292-8.845-19.292-19.757M274.936 22.554c0-10.91 8.637-19.756 19.292-19.756 10.654 0 19.291 8.845 19.291 19.756 0 10.912-8.637 19.757-19.291 19.757s-19.292-8.845-19.292-19.757M432.873 153.55c-1.438 7.67-23.146 8.15-41.318 5.663s-28.02-13.277-26.582-20.946c1.438-7.668 17.335-11.868 35.507-9.38 18.173 2.487 33.83 16.995 32.393 24.664M9.344 47.501C18.456 40.875 65.45 58.77 79.41 69.04s17.89 23.966 8.78 30.593c-9.113 6.626-27.816 3.672-41.777-6.597C32.452 82.766.232 54.127 9.344 47.5M428.964 47.501c8.836 6.626-22.405 35.265-35.942 45.535s-31.672 13.223-40.507 6.597-5.024-20.324 8.513-30.593c13.536-10.27 59.101-28.165 67.936-21.539M347.603 145.793c0 21.417-9.506 43.922-29.46 58.792-23.42 17.455-60.25 25.507-98.373 25.507-41.51 0-80.622-10.08-103.975-30.295-16.365-14.167-23.858-34.82-23.858-54.004 0-46.557 57.233-84.3 127.833-84.3s127.833 37.743 127.833 84.3"/><path fill="#060304" d="M232.21 163.243c0-21.509 17.436-38.945 38.944-38.945s38.945 17.436 38.945 38.945c0 21.508-17.436 38.944-38.945 38.944-21.508 0-38.944-17.436-38.944-38.944"/><path fill="#23a1d1" d="M238.146 163.243c0-18.23 14.779-33.009 33.008-33.009s33.009 14.779 33.009 33.009-14.779 33.008-33.009 33.008-33.008-14.778-33.008-33.008"/><path fill="#060304" d="M128.684 163.055c0-21.508 17.436-38.944 38.945-38.944 21.508 0 38.944 17.436 38.944 38.944s-17.436 38.944-38.944 38.944-38.945-17.436-38.945-38.944"/><path fill="#060303" d="m148.897 1.164 1.149.36c6.082 2.138 10.01 6.492 13.126 12.001 2.356 5.256 1.962 12.337.3 17.76-1.783 4.157-4.386 7.763-8.259 10.201h-.972l.306.828q.825 2.256 1.638 4.516l.386 1.074c2.004 5.585 3.838 11.189 5.443 16.901q1.883-.439 3.766-.88l1.15-.27c2.071-.487 4.137-.99 6.197-1.522 14.343-3.561 28.452-4.96 43.19-4.895q2.348.01 4.695-.01c16.946-.143 35.24 1.03 51.338 6.79 1.257.414 2.521.62 3.83.787l.165-.813a56 56 0 0 1 2.195-7.62l.794-2.249q.62-1.745 1.248-3.486.609-1.7 1.207-3.404l.384-1.048c.663-1.9 1.02-3.259.324-5.184-.9-.956-.9-.956-2.035-1.792-3.766-3.185-6.233-7.603-6.865-12.531a56 56 0 0 1-.088-3.774l.01-1.354c.16-6.025 2.274-10.775 6.548-15.042 4.886-4.33 10.253-6.764 16.835-6.487 6.8.714 12.272 3.71 16.687 8.916 2.087 2.677 3.063 5.476 3.886 8.744l.272.92c1.184 5.65-.022 11.623-3.065 16.479q-.765 1.036-1.58 2.034l-.811 1.012c-3.625 4.05-9.51 6.993-14.94 7.359l-1.616-.021-1.632-.01c-1.404-.081-1.404-.081-2.862-.567l-.164.813a58 58 0 0 1-2.178 7.638l-.787 2.255q-.616 1.75-1.235 3.499-.601 1.706-1.196 3.415l-.377 1.055c-.579 1.662-.864 2.861-.864 4.644l.916.406c9.603 4.274 18.892 8.727 27.261 15.14l1.672 1.253c6.541 4.962 12.76 10.576 17.816 17.07.817 1.142.817 1.142 1.888 1.596l.353-1.018c.73-1.666 1.696-3.093 2.744-4.57l.57-.817c.865-1.234 1.732-2.4 2.745-3.518 1.114-1.593 1.323-3.106 1.573-4.986 1.654-10.049 9.33-17.392 17.232-23.227 18.136-13.003 41.647-22.624 64.173-22.804l1.31-.015c3.428.047 6.166.655 8.892 2.87 1.631 2.236 1.379 4.944.972 7.56-1.211 3.617-3.609 6.662-5.83 9.716q-.574.823-1.145 1.647c-2.16 3.107-4.376 6.041-6.968 8.81-.92.99-1.806 1.996-2.689 3.019-5.003 5.734-10.453 11.017-16.567 15.548a78 78 0 0 0-2.416 1.917c-8.416 6.879-19.739 15.165-31.155 14.665-1.404-.007-1.404-.007-2.702.547-1.738 1.95-2.997 4.073-4.292 6.333-1.428 2.405-3.23 4.576-4.938 6.784l-.68.88q-1.069 1.384-2.144 2.763l-.672.866c-.906 1.154-1.762 2.22-2.888 3.166-1.204 1.424-1.105 2.27-1.025 4.106l.053 1.586.068 1.207.963-.541c10.892-6.095 10.892-6.095 16.162-7.761 1.196-.396 2.187-.858 3.28-1.475 7.652-3.963 17.566-2.699 25.748-1.397l1.869.27c14.39 2.333 30.923 9.804 39.808 21.793 1.495 2.43 1.938 4.252 1.56 7.086-1.265 2.695-2.868 3.276-5.545 4.31-3.118.982-6.295 1.48-9.515 2.006l-2.642.546c-6.504 1.151-13.29 1.014-19.874 1.028-1.32.005-2.639.02-3.958.035-8.459.051-17.847-.708-25.022-5.613-.99-.492-.99-.492-2.083-.002-1.38.633-2.644 1.35-3.939 2.14l-1.518.92-1.6.976c-3.948 2.397-7.9 4.765-11.99 6.916-1.818.942-1.818.942-2.675 2.77l1.086-.01q5.1-.044 10.203-.065 2.622-.01 5.244-.035a700 700 0 0 1 5.075-.028q1.424-.007 2.848-.027c14.191-.003 25.092 9.345 34.692 18.869 7.325 7.393 13.254 15.826 18.096 25.02l.516.961c3.905 7.305 7.349 14.899 6.771 23.33-.764 2.291-1.737 3.717-3.886 4.857-5.463 1.25-10.703-1.7-15.546-3.886l-1.256-.56c-16.402-7.357-31.74-16.744-44.41-29.56l-.862-.866c-2.253-2.418-5.94-6.842-5.94-10.308l-1.218.05c-5.678.13-11.155-.642-16.757-1.508l.73.395c4.522 2.608 6.918 6.128 9.047 10.81l.628 1.358c6.108 13.447 6.69 26.841 1.619 40.755-6.07 15.912-16.928 27.95-30.485 38.015l-.805.61c-21.885 16.555-21.885 16.555-32.23 15.422-2.04-.654-2.983-1.377-4.039-3.188l-.82-1.67-.486-.972c-.29-5.401-.004-10.503 1.19-15.794.319-1.439.615-2.881.911-4.325 3.443-16.643 7.816-32.572 16.36-47.409l-1.427-.06c-3.085-.445-5.733-2.518-7.773-4.798-1-1.454-1.455-2.7-1.973-4.372l-1.081.326c-14.502 4.363-14.502 4.363-19.81 5.503l-1.3.283c-8.621 1.827-17.276 2.843-26.036 3.703l-.991.097c-5.503.524-10.987.854-16.515.891l-1.805.015q-2.88.018-5.76.021l-.995.002c-11.442.014-22.708-.45-34.044-2.097l-1.116-.16c-11.707-1.697-23.225-4.1-34.498-7.731-1.315-.433-1.315-.433-2.765-.368-.672.991-.672.991-1.276 2.247-2.159 3.788-5.445 5.465-9.412 6.984a59 59 0 0 0 2.239 5.033c2.871 5.83 5.627 11.562 7.477 17.8l.391 1.312c2.518 8.58 4.362 17.3 6.067 26.072q.316 1.629.65 3.254c.607 3.057.828 5.994.817 9.108l.024 1.327c.001 2.547-.198 4.342-1.633 6.537-2.279 2.056-3.62 2.563-6.614 2.52-1.71-.134-3.187-.655-4.742-1.336l-1.028-.436c-22.402-9.927-44.957-27.417-54.173-50.787a109 109 0 0 1-2.915-9.716l-.288-1.138c-2.965-13.025.331-25.328 6.604-36.756 1.874-2.845 3.944-5.687 7.287-6.801-1.732.096-3.456.24-5.184.399a72 72 0 0 1-2.465.143c-5.628.003-5.628.003-10.653 2.05-1.264 1.585-1.963 3.4-2.689 5.277-7.986 18.166-39.995 30.895-56.74 37.798-2.754.819-6.039.99-8.714-.092-1.787-1.57-2.53-3.04-2.704-5.399-.157-5.75.681-10.231 3.16-15.4l.449-.963a149 149 0 0 1 3.437-6.81c.17-.32.34-.64.514-.971 4.168-7.817 9.128-14.782 15.032-21.376l1.22-1.383c3.15-3.545 6.323-6.866 10.136-9.7.333-.247.665-.494 1.007-.75 6.583-4.808 13.841-9.615 22.256-9.598h1.827l1.958.008 2.016.002q2.643.003 5.288.012 2.701.007 5.402.01 5.295.008 10.589.023c-1.292-1.668-2.282-2.78-4.164-3.754l-1.308-.69-1.39-.718c-4.032-2.131-7.957-4.368-11.819-6.794-.335-.21-.67-.42-1.016-.635l-.88-.559c-.877-.53-.877-.53-2.257-.939-1.235.526-1.235.526-2.58 1.306-8.97 4.647-18.745 4.723-28.603 4.706l-1.557.001c-25.735-.032-25.735-.032-33.33-5.527-1.377-1.598-1.787-3.113-1.68-5.235 1.141-5.55 6.936-10.403 11.335-13.59 15.015-9.866 32.86-15.815 51.003-13.483 9.37 2.022 18.451 6.795 26.788 11.418l.213-1.093c.273-1.336.273-1.336.603-2.292.302-1.17.302-1.17-.956-2.57a160 160 0 0 0-1.62-1.879c-2.407-2.853-4.708-5.748-6.893-8.775l-.81-1.104c-1.191-1.652-2.287-3.268-3.183-5.1-.854-1.697-1.568-3.034-2.9-4.392-2.275-.704-4.425-.815-6.791-.908-13.308-.871-25.866-12.681-35.475-20.954l-1.055-.888a88 88 0 0 1-11.997-12.411c-.998-1.228-2.047-2.372-3.131-3.522-4.815-5.312-11.47-13.13-11.872-20.587.123-1.643.388-2.794 1.366-4.13 3.023-2.572 5.727-2.915 9.564-2.853l1.362.015c4.542.1 8.889.722 13.334 1.624l1.413.277c18.95 3.781 38.444 11.45 52.999 24.5.41.346.819.692 1.24 1.05 5.578 4.806 11.127 10.953 11.755 18.595.422 4.007 2.854 6.629 5.306 9.657 2.589 3.28 2.589 3.28 2.589 4.705 1.78-.593 2.097-1.19 3.218-2.672 11.743-14.664 28.73-25.932 46.335-32.307-.329-2.875-1.332-5.463-2.308-8.168a216 216 0 0 1-4.494-14.18l-1.601-.037c-8.084-.275-14.303-2.291-20.004-8.314-2.347-2.78-3.616-5.67-4.629-9.138l-.486-1.457c-.466-6.954.214-13 4.665-18.668 6.24-6.697 15.078-10.082 23.999-7.08m133.345 12.614c-2.74 3.776-2.889 8.633-2.175 13.134 1.402 4.984 4.434 8.524 8.836 11.113 4.096 1.638 8.566 1.614 12.662.03 4.512-2.09 7.26-5.018 9.473-9.443 1.484-4.248 1.082-9.328-.85-13.36-2.259-4.183-5.788-6.649-10.16-8.317-7.221-2.057-13.27 1.326-17.786 6.843m-152.441-1.5c-3.218 4.036-3.564 8.144-3.251 13.176.755 4.577 3.195 8.131 6.784 11.019 3.925 2.546 8.273 3.262 12.83 2.355 4.491-1.302 8.184-3.956 10.506-8.03 1.999-4.04 2.679-8.041 1.64-12.468-1.636-4.717-5.049-8.082-9.413-10.365l-.9-.504c-6.333-2.84-13.807.127-18.196 4.818M9.469 49.746c.273 2.07.977 3.36 2.155 5.07l1.069 1.551.57.813q.863 1.235 1.71 2.478c4.553 6.578 9.905 12.456 15.386 18.265l.933.997c1.983 2.053 4.158 3.834 6.382 5.619q1.424 1.152 2.813 2.345c10.66 9.154 22.547 16.404 36.996 15.33 4.415-.824 8.35-2.867 11.416-6.164 1.528-2.355 1.489-4.72 1.215-7.439-2.41-9.03-10.13-14.905-17.49-19.918l-.888-.612C58.492 59.055 43.077 53.468 27.474 50.26l-1.082-.228c-8.562-1.9-8.562-1.9-16.923-.288m402.733.266c-.994.227-1.991.43-2.991.63-14.314 2.911-28.077 8.318-40.422 16.108l-1.33.838c-3.057 1.967-5.885 4.139-8.69 6.449l-1.067.852c-4.608 3.698-8.966 9.336-9.77 15.324-.155 2.95.335 4.57 2.271 6.813 3.786 3.894 8.21 5.22 13.52 5.33 18.352.133 32.476-13.491 45.085-25.404l1.105-1.042c2.186-2.121 4.112-4.403 6.016-6.779a184 184 0 0 1 3.507-4.173c1.919-2.297 3.674-4.671 5.374-7.135l.678-.98c2.363-3.282 2.363-3.282 3.239-7.097-5.354-2.045-11.098-1.005-16.525.266M195.536 64.32l-1.277.157c-2.826.364-5.633.808-8.44 1.3-.58.1-.58.1-1.172.2-6.886 1.2-13.527 3.094-20.203 5.144 0 1.631.092 2.473.573 3.959l.39 1.216.433 1.323.447 1.392a412 412 0 0 0 2.515 7.536q.666 1.935 1.325 3.871c.321.935.65 1.866.977 2.798 2.544 7.438 2.544 7.438 2.084 10.455-1.159 1.129-1.79 1.432-3.4 1.7-1.458-.243-1.458-.243-2.418-1.228-1.17-1.72-1.896-3.42-2.623-5.36l-.44-1.156c-1.348-3.601-2.441-7.266-3.515-10.956a201 201 0 0 0-2.33-7.352l-.375-1.125c-.623-1.87-.623-1.87-1.416-3.672-3.23.223-5.77 1.442-8.654 2.854l-1.493.725c-9.418 4.653-18.231 10.482-25.804 17.797l-.928.89c-14.536 14.002-25.534 32.117-25.958 52.813-.156 17.522 6.072 32.57 18.293 45.112 19.746 19.615 49.224 27.064 76.048 29.763 3.008.32 6.007.727 9.005 1.134 7.288.946 14.608 1.102 21.948 1.124l1.391.004c9.016.01 17.864-.734 26.804-1.84 2.618-.322 5.239-.606 7.86-.887 14.303-1.558 29.817-4.822 42.86-11.032l.864-.411a220 220 0 0 0 6.909-3.476l1.019-.532c4.44-2.342 8.309-4.889 12.098-8.212q.76-.631 1.525-1.258c13.17-10.83 21.606-23.799 23.737-41.008.528-7.168.437-14.413-1.457-21.376l-.253-.938c-3.452-12.552-9.47-23.778-18.444-33.23a73 73 0 0 1-2.892-3.27c-9.762-11.14-24.348-19.644-38.167-24.746h-1.457a49 49 0 0 0-2.562 7.152c-1.232 4.304-2.645 8.533-4.126 12.757a617 617 0 0 0-1.26 3.654q-.407 1.168-.816 2.335l-.372 1.098c-.636 1.787-.901 2.528-2.524 3.61-2.899.259-2.899.259-4.342-.486-.854-1.607-.78-3.11-.516-4.858.405-1.315.886-2.58 1.39-3.86.6-1.61 1.068-3.228 1.525-4.885a90 90 0 0 1 2.425-7.393c1.485-4.098 2.668-8.228 3.405-12.525-3.4-1.416-6.912-2.285-10.49-3.125q-1.2-.282-2.398-.576c-13.776-3.357-27.845-4.178-41.979-4.163h-1.46c-7.336.01-14.6.159-21.89 1.063M94 98.813l-1.032 1.457c-3.205 3.745-8.398 6.002-13.056 7.287.772 2.406 2.185 4.188 3.704 6.164l.792 1.04c4.065 5.355 4.065 5.355 8.62 10.286l.714-1.445q.494-.993.987-1.987l.522-1.054a121 121 0 0 1 2.805-5.34l.546-.982q.52-.925 1.057-1.842c.687-1.229 1.141-2.18 1.152-3.6-.724-1.812-1.76-3.343-2.863-4.944l-.659-.983c-1.008-1.487-1.986-2.813-3.289-4.057m250.195 0q-1.157 1.47-2.308 2.945l-.652.826c-2.763 3.238-2.763 3.238-3.727 7.108.402 1.37.944 2.478 1.643 3.722l.772 1.39.81 1.437c1.62 2.89 3.207 5.725 4.434 8.805h.971c.797-.938.797-.938 1.64-2.186 1.948-2.75 3.956-5.448 5.987-8.138q1.049-1.394 2.09-2.793l.716-.957c1.275-1.545 1.275-1.545 1.713-3.415l-.892-.216c-4.429-1.186-8.167-3.136-11.254-6.585q-.968-.975-1.943-1.944m25.262 35.464c-1.616 2.66-1.864 5.226-1.457 8.259 1.303 4.756 3.7 7.546 7.921 10.01 2.777 1.437 5.427 2.395 8.506 2.925l.953.178c5.025.906 9.978 1.051 15.078 1.036l1.88.006c6.291-.007 12.39-.554 18.592-1.573q1.511-.247 3.024-.483l1.949-.316 1.752-.284a19 19 0 0 0 3.987-1.297c-2.455-7.16-11.521-11.669-17.974-14.857-7.306-3.497-14.327-5.504-22.349-6.519l-1.467-.195c-10.931-1.306-10.931-1.306-20.395 3.11M8.011 149.823c-1.174 1.295-1.174 1.295-1.457 2.915 16.469 5.095 38.773 7.163 54.963.328 3.836-2.05 7.106-4.614 8.466-8.908.548-2.93 1.028-6.58-.638-9.213-2.813-2.97-5.54-3.454-9.544-3.673-1.84-.04-3.676-.042-5.516-.031l-1.867-.012c-16.987.035-32.397 6.658-44.407 18.594M75.54 136.22l.103 1.585c.202 4.597-.149 7.675-2.427 11.756-.773 1.248-.773 1.248-.105 2.691.888.694.888.694 2.002 1.315l1.258.743 1.325.766 2.549 1.497 1.283.745a262 262 0 0 1 5.18 3.147c.935.61.935.61 1.95.532v-18.461l-5.74-2.885-1.804-.909-1.423-.713-1.457-.733c-1.25-.628-1.25-.628-2.694-1.076m282.141 2.334c-2.45 1.445-4.997 2.493-7.655 3.496l.008 1.269q.012 2.358.018 4.718l.01 2.03c.023 3.676-.01 7.284-.522 10.93 2.159-.79 4.108-1.848 6.103-2.976l1.028-.579c3.068-1.748 6-3.66 8.9-5.676-.406-1.867-1.16-3.47-1.973-5.19-.958-2.369-.995-4.568-.971-7.107l.013-1.846.017-1.403c-1.805 0-3.45 1.411-4.976 2.334M75.054 177.03c.608 1.609 1.322 3.04 2.186 4.524 1.705 3.315 1.882 6.877 2.186 10.536 7.034.29 13.919-.595 20.89-1.458-.652-2.221-1.553-4-2.793-5.95l-.964-1.527-.544-.808c-.557-.945-.557-.945-1.051-2.22-.662-1.511-1.199-2.467-2.421-3.583-2.72-.63-5.336-.48-8.107-.334q-1.12.03-2.24.054c-3.625.03-3.625.03-7.142.766m264.29 8.787c-1.069 2.33-1.069 2.33-1.465 4.815 7.123.928 14.196 1.696 21.376 1.944l.055-1.334c.302-5.584 1.463-9.44 4.318-14.212-1.95-1.95-8.545-1.355-11.197-1.43-7.615.049-10.11 3.664-13.087 10.217m-299.57 4.254a128 128 0 0 1-3.19 2.778c-10.467 9.171-22.427 26.627-24.2 40.535a45 45 0 0 0 0 3.887c2.798-.252 5.078-.804 7.651-1.913l1.072-.455c8.636-3.725 16.744-8.342 24.798-13.178l1.186-.707c5.729-3.426 10.723-7.355 15.65-11.87a62 62 0 0 1 2.186-1.886c4.047-3.323 7.073-7.566 8.183-12.743.505-5.452.08-10.2-3.4-14.574-2.576-2.501-4.653-3.122-8.18-3.08-8.538.917-15.7 7.67-21.757 13.206m327.518-8.726c-2.433 3.339-2.979 7.167-2.693 11.23 1.317 7.9 6.624 13.569 12.631 18.462.26.213.518.427.784.647 12.102 9.974 26.01 17.681 40.328 24.008l1.423.634 1.33.573 1.164.504c1.24.39 2.261.418 3.553.354.293-4.143-.392-7.343-1.943-11.174l-.396-.978c-4.705-11.48-11.401-21.842-20.108-30.685a295 295 0 0 1-2.628-2.716c-6.242-6.455-16.07-15.02-25.571-15.387-3.66.189-5.6 1.787-7.874 4.528M95.397 204.872l-.91 1.306.485.971 1.457-.486c9.54-.79 16.973 2.895 24.2 8.988 6.162 5.326 6.162 5.326 8.138 8.502 1.05 1.606 1.05 1.606 2.793 1.791 3.575-.666 5.794-2.108 8.092-4.907.59-.753.59-.753.5-1.742l-1.269-.45c-9.486-3.556-18.586-9.142-26.124-15.925-2.746-2.206-5.99-2.375-9.403-2.288-3.22.41-5.852 1.763-7.959 4.24m227.187.275c-6.143 5.18-13.245 9.283-20.672 12.282l-1.095.46-.982.396c-1.038.663-1.334 1.343-1.792 2.467 3.256 3.543 3.256 3.543 7.732 5.006 1.858-.183 2.323-.646 3.58-1.996l1.136-1.188 1.185-1.275c3.514-3.648 6.96-6.914 11.143-9.777l1.226-.868c6.193-4.078 12.518-4.265 19.664-3.99-.678-1.607-1.42-2.437-2.824-3.462l-.98-.733c-6.072-3.828-12.476-1.757-17.321 2.678M89.429 217.171c-2.47 3.683-2.803 7.767-2.807 12.083l-.018 1.051c-.015 5.96 1.247 11.496 3.176 17.106l.557 1.704c1.06 3.146 2.258 5.837 4.15 8.559q.524.837 1.04 1.68c4.853 7.72 10.867 14.38 17.906 20.182l.723.611c7.75 6.544 22.123 18.65 32.798 17.85 1.438-22.741-8.403-53.784-23.122-70.94a119 119 0 0 0-4.083-4.362l-.689-.712c-5.21-5.318-11.67-9.352-19.2-10.188-4.394.23-7.698 1.972-10.431 5.376m223.28 11.688c-5.13 6.658-8.933 14.607-11.751 22.5l-.415 1.158c-3.216 9.172-5.47 18.738-7.147 28.307-.269 1.45-.636 2.87-1.001 4.298-.946 4.27-.793 8.523-.668 12.875 2.673-.273 4.882-.955 7.348-2.004l1.097-.463c8.169-3.506 15.327-8.413 22.161-14.051l2.338-1.822c2.847-2.276 5.506-4.746 8.153-7.25q.838-.789 1.687-1.569c9.057-8.594 14.737-20.86 16.485-33.082l.27-1.644c.765-6.215 1.126-13.697-2.638-19.004-2.275-2.7-4.858-4.736-8.424-5.258-11.218-.527-20.904 8.937-27.496 17.01"/><path fill="#23a1d1" d="M134.62 163.055c0-18.23 14.779-33.008 33.009-33.008s33.008 14.778 33.008 33.008-14.778 33.008-33.008 33.008-33.009-14.778-33.009-33.008"/><path fill="#93e6f9" d="M151.875 163.055c0-8.7 7.053-15.754 15.754-15.754 8.7 0 15.754 7.053 15.754 15.754 0 8.7-7.054 15.754-15.754 15.754-8.701 0-15.754-7.053-15.754-15.754M255.4 163.243c0-8.701 7.054-15.754 15.754-15.754 8.701 0 15.754 7.053 15.754 15.754 0 8.7-7.053 15.754-15.754 15.754-8.7 0-15.753-7.054-15.753-15.754"/><path fill="none" stroke="#000" stroke-linecap="round" stroke-width="6.5" d="M205.87 163.944h28.394"/></g></svg>